<?xml version="1.0" encoding="UTF-8" standalone="no"?>
<!-- Created with Inkscape (http://www.inkscape.org/) -->

<svg
   width="198.57341mm"
   height="240.94879mm"
   viewBox="0 0 198.57341 240.94879"
   version="1.1"
   id="svg1"
   inkscape:version="1.4 (e7c3feb100, 2024-10-09)"
   sodipodi:docname="imp_logo_text.svg"
   inkscape:export-filename="imp_logo_text.png"
   inkscape:export-xdpi="65.489998"
   inkscape:export-ydpi="65.489998"
   xmlns:inkscape="http://www.inkscape.org/namespaces/inkscape"
   xmlns:sodipodi="http://sodipodi.sourceforge.net/DTD/sodipodi-0.dtd"
   xmlns:xlink="http://www.w3.org/1999/xlink"
   xmlns="http://www.w3.org/2000/svg"
   xmlns:svg="http://www.w3.org/2000/svg">
  <sodipodi:namedview
     id="namedview1"
     pagecolor="#ffffff"
     bordercolor="#666666"
     borderopacity="1.0"
     inkscape:showpageshadow="2"
     inkscape:pageopacity="0.0"
     inkscape:pagecheckerboard="0"
     inkscape:deskcolor="#d1d1d1"
     inkscape:document-units="mm"
     inkscape:zoom="0.51591118"
     inkscape:cx="453.56645"
     inkscape:cy="433.2141"
     inkscape:window-width="1920"
     inkscape:window-height="1006"
     inkscape:window-x="0"
     inkscape:window-y="0"
     inkscape:window-maximized="1"
     inkscape:current-layer="layer1" />
  <defs
     id="defs1">
    <linearGradient
       id="linearGradient29"
       inkscape:collect="always">
      <stop
         style="stop-color:#ff0001;stop-opacity:1;"
         offset="0"
         id="stop29" />
      <stop
         style="stop-color:#ff7c00;stop-opacity:1;"
         offset="0.48987108"
         id="stop52" />
      <stop
         style="stop-color:#fffe00;stop-opacity:1;"
         offset="1"
         id="stop30" />
    </linearGradient>
    <linearGradient
       id="linearGradient25"
       inkscape:collect="always">
      <stop
         style="stop-color:#5a0000;stop-opacity:1;"
         offset="0"
         id="stop25" />
      <stop
         style="stop-color:#ff0000;stop-opacity:1;"
         offset="1"
         id="stop26" />
    </linearGradient>
    <linearGradient
       id="linearGradient23"
       inkscape:collect="always">
      <stop
         style="stop-color:#430000;stop-opacity:1;"
         offset="0"
         id="stop23" />
      <stop
         style="stop-color:#f40000;stop-opacity:1;"
         offset="1"
         id="stop24" />
    </linearGradient>
    <linearGradient
       inkscape:collect="always"
       xlink:href="#linearGradient23"
       id="linearGradient24"
       x1="103.40429"
       y1="42.713161"
       x2="103.40429"
       y2="249.76906"
       gradientUnits="userSpaceOnUse"
       gradientTransform="translate(5.7132924,-9.625475)" />
    <linearGradient
       inkscape:collect="always"
       xlink:href="#linearGradient25"
       id="linearGradient26"
       x1="55.681828"
       y1="227.73625"
       x2="55.681828"
       y2="28.845406"
       gradientUnits="userSpaceOnUse"
       gradientTransform="translate(5.7132924,-9.625475)" />
    <linearGradient
       inkscape:collect="always"
       xlink:href="#linearGradient29"
       id="linearGradient43"
       gradientUnits="userSpaceOnUse"
       x1="126.71481"
       y1="190.96912"
       x2="126.71481"
       y2="14.07086"
       gradientTransform="translate(5.5120949,-9.625475)" />
    <linearGradient
       inkscape:collect="always"
       xlink:href="#linearGradient29"
       id="linearGradient44"
       gradientUnits="userSpaceOnUse"
       x1="159.48103"
       y1="235.7636"
       x2="157.66783"
       y2="104.15466"
       gradientTransform="translate(5.5120949,-9.625475)" />
    <linearGradient
       inkscape:collect="always"
       xlink:href="#linearGradient29"
       id="linearGradient54"
       gradientUnits="userSpaceOnUse"
       x1="126.71481"
       y1="190.96912"
       x2="126.71481"
       y2="14.07086"
       gradientTransform="translate(5.5120949,-9.625475)" />
    <linearGradient
       inkscape:collect="always"
       xlink:href="#linearGradient29"
       id="linearGradient55"
       gradientUnits="userSpaceOnUse"
       x1="159.48103"
       y1="235.7636"
       x2="157.66783"
       y2="104.15466"
       gradientTransform="translate(5.5120949,-9.625475)" />
  </defs>
  <g
     inkscape:label="Layer 1"
     inkscape:groupmode="layer"
     id="layer1"
     transform="translate(-5.7132924,9.625475)">
    <path
       id="path104"
       style="fill:url(#linearGradient26);fill-opacity:1;stroke:url(#linearGradient24);stroke-width:1.764;stroke-linecap:butt;stroke-linejoin:miter;stroke-miterlimit:4;stroke-dasharray:none;stroke-opacity:1"
       d="m 105.00051,29.727405 c -26.829222,0 -39.789078,69.481714 -45.602378,87.678475 -5.61574,17.57833 -31.857758,75.5183 -51.4573249,81.61784 l 97.0597029,-27.12983 97.05868,27.12983 C 182.45962,192.92418 156.2176,134.98421 150.60186,117.40588 144.78856,99.209119 131.82973,29.727405 105.00051,29.727405 Z m 97.05868,169.296315 c 0.68954,0.21459 1.37241,0.37078 2.04432,0.43408 z m -194.1183829,0 -2.0443197,0.43408 c 0.6719099,-0.0633 1.3547751,-0.21949 2.0443197,-0.43408 z"
       sodipodi:nodetypes="zscccszcccccc" />
    <g
       id="g55"
       transform="translate(0.2011975)">
      <path
         id="path42"
         style="fill:url(#linearGradient43);stroke:url(#linearGradient44);stroke-width:1.764;stroke-linecap:round;stroke-linejoin:round;stroke-dasharray:none;stroke-opacity:1"
         d="m 117.63623,42.273389 a 4.7316656,3.9913984 44.039948 0 0 -3.76514,3.628202 4.7316656,3.9913984 44.039948 0 0 4.38939,5.037419 4.7316656,3.9913984 44.039948 0 0 4.38991,-3.567225 4.7316656,3.9913984 44.039948 0 0 -4.38991,-5.037418 4.7316656,3.9913984 44.039948 0 0 -0.62425,-0.06098 z m -5.27203,11.880928 a 4.7316656,3.9913984 44.039948 0 0 -3.76463,3.628203 4.7316656,3.9913984 44.039948 0 0 4.3894,5.037935 4.7316656,3.9913984 44.039948 0 0 4.38991,-3.567224 4.7316656,3.9913984 44.039948 0 0 -4.38991,-5.037936 4.7316656,3.9913984 44.039948 0 0 -0.62477,-0.06098 z m 26.62628,44.361634 a 4.7316656,3.9913984 44.039948 0 0 -3.76463,3.628199 4.7316656,3.9913984 44.039948 0 0 4.3894,5.03742 4.7316656,3.9913984 44.039948 0 0 4.38991,-3.56722 4.7316656,3.9913984 44.039948 0 0 -4.38991,-5.037938 4.7316656,3.9913984 44.039948 0 0 -0.62477,-0.06046 z m 7.17424,30.684949 a 4.7316656,3.9913984 44.039948 0 0 -3.76463,3.6282 4.7316656,3.9913984 44.039948 0 0 4.3894,5.03742 4.7316656,3.9913984 44.039948 0 0 4.3894,-3.56722 4.7316656,3.9913984 44.039948 0 0 -4.3894,-5.03742 4.7316656,3.9913984 44.039948 0 0 -0.62477,-0.061 z m -18.20044,12.89224 a 4.7316656,3.9913984 44.039948 0 0 -3.76463,3.6282 4.7316656,3.9913984 44.039948 0 0 4.3894,5.03793 4.7316656,3.9913984 44.039948 0 0 4.38991,-3.56774 4.7316656,3.9913984 44.039948 0 0 -4.38991,-5.03742 4.7316656,3.9913984 44.039948 0 0 -0.62477,-0.061 z m 17.24494,3.77496 a 4.7316656,3.9913984 44.039948 0 0 -3.76462,3.6282 4.7316656,3.9913984 44.039948 0 0 4.38939,5.03794 4.7316656,3.9913984 44.039948 0 0 4.38992,-3.56723 4.7316656,3.9913984 44.039948 0 0 -4.38992,-5.03793 4.7316656,3.9913984 44.039948 0 0 -0.62477,-0.061 z m 10.76989,14.70866 a 4.7316656,3.9913984 44.039948 0 0 -3.76463,3.6282 4.7316656,3.9913984 44.039948 0 0 4.3894,5.03742 4.7316656,3.9913984 44.039948 0 0 4.38939,-3.56722 4.7316656,3.9913984 44.039948 0 0 -4.38939,-5.03742 4.7316656,3.9913984 44.039948 0 0 -0.62477,-0.061 z m -36.22001,1.74356 a 4.7316656,3.9913984 44.039948 0 0 -3.76515,3.62821 4.7316656,3.9913984 44.039948 0 0 4.38992,5.03742 4.7316656,3.9913984 44.039948 0 0 4.38939,-3.56723 4.7316656,3.9913984 44.039948 0 0 -4.38939,-5.03793 4.7316656,3.9913984 44.039948 0 0 -0.62477,-0.0605 z m 19.23138,0.2155 a 4.7316656,3.9913984 44.039948 0 0 -3.76463,3.6282 4.7316656,3.9913984 44.039948 0 0 4.3894,5.03742 4.7316656,3.9913984 44.039948 0 0 4.38991,-3.56723 4.7316656,3.9913984 44.039948 0 0 -4.38991,-5.03742 4.7316656,3.9913984 44.039948 0 0 -0.62477,-0.061 z m 12.44575,9.57977 a 4.7316656,3.9913984 44.039948 0 0 -3.76462,3.6282 4.7316656,3.9913984 44.039948 0 0 4.38939,5.03794 4.7316656,3.9913984 44.039948 0 0 4.3894,-3.56722 4.7316656,3.9913984 44.039948 0 0 -4.3894,-5.03794 4.7316656,3.9913984 44.039948 0 0 -0.62477,-0.061 z m 18.3901,3.55482 a 4.7316656,3.9913984 44.039948 0 0 -3.76515,3.62821 4.7316656,3.9913984 44.039948 0 0 4.3894,5.03742 4.7316656,3.9913984 44.039948 0 0 4.38991,-3.56723 4.7316656,3.9913984 44.039948 0 0 -4.38991,-5.03742 4.7316656,3.9913984 44.039948 0 0 -0.62425,-0.061 z" />
      <path
         id="path54"
         style="fill:url(#linearGradient54);stroke:url(#linearGradient55);stroke-width:1.764;stroke-linecap:round;stroke-linejoin:round;stroke-dasharray:none;stroke-opacity:1"
         d="m 91.961375,42.273389 a 3.9913984,4.7316656 45.960052 0 1 3.76514,3.628202 3.9913984,4.7316656 45.960052 0 1 -4.38939,5.037419 3.9913984,4.7316656 45.960052 0 1 -4.38991,-3.567225 3.9913984,4.7316656 45.960052 0 1 4.38991,-5.037418 3.9913984,4.7316656 45.960052 0 1 0.62425,-0.06098 z m 5.27203,11.880928 a 3.9913984,4.7316656 45.960052 0 1 3.764625,3.628203 3.9913984,4.7316656 45.960052 0 1 -4.389395,5.037935 3.9913984,4.7316656 45.960052 0 1 -4.38991,-3.567224 3.9913984,4.7316656 45.960052 0 1 4.38991,-5.037936 3.9913984,4.7316656 45.960052 0 1 0.62477,-0.06098 z m -26.62628,44.361634 a 3.9913984,4.7316656 45.960052 0 1 3.76463,3.628199 3.9913984,4.7316656 45.960052 0 1 -4.3894,5.03742 3.9913984,4.7316656 45.960052 0 1 -4.38991,-3.56722 3.9913984,4.7316656 45.960052 0 1 4.38991,-5.037938 3.9913984,4.7316656 45.960052 0 1 0.62477,-0.06046 z m -7.17424,30.684949 a 3.9913984,4.7316656 45.960052 0 1 3.76463,3.6282 3.9913984,4.7316656 45.960052 0 1 -4.3894,5.03742 3.9913984,4.7316656 45.960052 0 1 -4.3894,-3.56722 3.9913984,4.7316656 45.960052 0 1 4.3894,-5.03742 3.9913984,4.7316656 45.960052 0 1 0.62477,-0.061 z m 18.20044,12.89224 a 3.9913984,4.7316656 45.960052 0 1 3.76463,3.6282 3.9913984,4.7316656 45.960052 0 1 -4.3894,5.03793 3.9913984,4.7316656 45.960052 0 1 -4.38991,-3.56774 3.9913984,4.7316656 45.960052 0 1 4.38991,-5.03742 3.9913984,4.7316656 45.960052 0 1 0.62477,-0.061 z m -17.24494,3.77496 a 3.9913984,4.7316656 45.960052 0 1 3.76462,3.6282 3.9913984,4.7316656 45.960052 0 1 -4.38939,5.03794 3.9913984,4.7316656 45.960052 0 1 -4.38992,-3.56723 3.9913984,4.7316656 45.960052 0 1 4.38992,-5.03793 3.9913984,4.7316656 45.960052 0 1 0.62477,-0.061 z m -10.76989,14.70866 a 3.9913984,4.7316656 45.960052 0 1 3.76463,3.6282 3.9913984,4.7316656 45.960052 0 1 -4.3894,5.03742 3.9913984,4.7316656 45.960052 0 1 -4.38939,-3.56722 3.9913984,4.7316656 45.960052 0 1 4.38939,-5.03742 3.9913984,4.7316656 45.960052 0 1 0.62477,-0.061 z m 36.22001,1.74356 a 3.9913984,4.7316656 45.960052 0 1 3.76515,3.62821 3.9913984,4.7316656 45.960052 0 1 -4.38992,5.03742 3.9913984,4.7316656 45.960052 0 1 -4.38939,-3.56723 3.9913984,4.7316656 45.960052 0 1 4.38939,-5.03793 3.9913984,4.7316656 45.960052 0 1 0.62477,-0.0605 z m -19.23138,0.2155 a 3.9913984,4.7316656 45.960052 0 1 3.76463,3.6282 3.9913984,4.7316656 45.960052 0 1 -4.3894,5.03742 3.9913984,4.7316656 45.960052 0 1 -4.38991,-3.56723 3.9913984,4.7316656 45.960052 0 1 4.38991,-5.03742 3.9913984,4.7316656 45.960052 0 1 0.62477,-0.061 z m -12.44575,9.57977 a 3.9913984,4.7316656 45.960052 0 1 3.76462,3.6282 3.9913984,4.7316656 45.960052 0 1 -4.38939,5.03794 3.9913984,4.7316656 45.960052 0 1 -4.3894,-3.56722 3.9913984,4.7316656 45.960052 0 1 4.3894,-5.03794 3.9913984,4.7316656 45.960052 0 1 0.62477,-0.061 z m -18.3901,3.55482 a 3.9913984,4.7316656 45.960052 0 1 3.76515,3.62821 3.9913984,4.7316656 45.960052 0 1 -4.3894,5.03742 3.9913984,4.7316656 45.960052 0 1 -4.38991,-3.56723 3.9913984,4.7316656 45.960052 0 1 4.38991,-5.03742 3.9913984,4.7316656 45.960052 0 1 0.62425,-0.061 z" />
    </g>
    <path
       id="path1"
       style="fill:#d60000;fill-opacity:1;stroke:#000000;stroke-width:1.764;stroke-linecap:round;stroke-linejoin:round;stroke-dasharray:none;stroke-opacity:1"
       d="m 74.685881,75.943168 c -6.097301,0.108306 -10.593669,3.293339 -10.593669,3.293339 0,0 5.076781,1.813036 9.609749,8.159192 1.3971,1.95594 2.413187,3.858636 3.153296,5.557284 -5.729007,6.56457 -9.20721,15.144347 -9.20719,24.541657 0.0022,8.95594 3.222267,17.61295 9.073348,24.39334 h -0.0078 C 94.613097,163.74908 93.2139,183.4348 93.2139,183.4348 h 11.78584 11.78585 c 0,0 -1.39925,-19.68572 16.50028,-41.54682 h -0.008 c 5.85108,-6.78039 9.07135,-15.4374 9.07335,-24.39334 1.3e-4,-9.39709 -3.47793,-17.976627 -9.20668,-24.541141 0.74013,-1.698753 1.75557,-3.601699 3.15278,-5.5578 4.53297,-6.346156 9.61027,-8.159192 9.61027,-8.159192 0,0 -8.7032,-6.164908 -18.31309,-1.631942 -3.74976,1.768754 -6.60554,3.616276 -8.70697,5.216736 -4.2944,-1.721741 -8.97834,-2.6784 -13.88804,-2.678389 -4.9097,-1.1e-5 -9.593112,0.956648 -13.887521,2.678389 -2.10143,-1.60046 -4.957207,-3.447982 -8.706962,-5.216736 -2.702782,-1.274896 -5.333525,-1.703777 -7.719425,-1.661397 z" />
    <path
       id="rect2"
       style="stroke-width:1.76389;stroke-linecap:round;stroke-linejoin:round"
       d="m 96.169535,174.7914 4.102595,19.94968 h 3.15226 3.15175 3.15173 l 4.1026,-19.94968 h -4.17752 -9.3059 z" />
    <path
       id="rect3"
       style="stroke-width:1.76389;stroke-linecap:round;stroke-linejoin:round"
       d="m 102.61875,153.44231 -10.879439,3.26389 v 2.99155 l 10.879439,-1.26918 z m 4.7625,0 v 4.98626 l 10.87944,1.26918 v -2.99155 z" />
    <path
       id="rect4"
       style="stroke-width:1.76389;stroke-linecap:round;stroke-linejoin:round"
       d="m 97.787352,166.28861 c 6.082618,-1.31417 11.573478,-3.00311 15.432848,-4.80483 -2.423,5.69866 -1.24926,8.07589 -0.80006,9.54866 -5.64085,1.02403 -15.377467,1.28212 -15.377467,1.28212 0,0 1.56258,-2.42133 0.744679,-6.02595 z"
       sodipodi:nodetypes="ccccc" />
    <path
       id="path4"
       style="stroke-width:1.76389;stroke-linecap:round;stroke-linejoin:round"
       d="m 89.187271,108.0708 c -6.72689,0 -12.180135,5.45325 -12.180135,12.18014 0,6.72689 12.120538,12.43645 18.847428,12.43645 6.726886,0 5.512836,-5.70956 5.512836,-12.43645 0,-6.72689 -5.453239,-12.18014 -12.180129,-12.18014 z m 31.625459,0 c -6.72689,0 -12.18014,5.45325 -12.18014,12.18014 0,6.72689 -1.21353,12.43645 5.51336,12.43645 6.72689,0 18.84691,-5.70956 18.84691,-12.43645 0,-6.72689 -5.45324,-12.18014 -12.18013,-12.18014 z" />
    <path
       style="fill:#000000;fill-opacity:1;stroke:none;stroke-width:1.764;stroke-linecap:butt;stroke-linejoin:miter;stroke-dasharray:none;stroke-opacity:1"
       d="m 78.779067,99.543956 c 0,0 -0.543957,-5.802199 -5.076923,-12.148351 -4.532968,-6.346156 -9.609891,-8.159343 -9.609891,-8.159343 0,0 1.450549,-2.175823 11.060441,2.357143 9.609889,4.532969 9.972526,11.604397 9.972526,11.604397 0,0 -4.333423,1.787737 -6.346153,6.346154 z"
       id="path14"
       sodipodi:nodetypes="cscscc" />
    <path
       style="fill:#000000;fill-opacity:1;stroke:none;stroke-width:1.764;stroke-linecap:butt;stroke-linejoin:miter;stroke-dasharray:none;stroke-opacity:1"
       d="m 131.22094,99.543956 c 0,0 0.54395,-5.802199 5.07692,-12.148351 4.53297,-6.346156 9.60989,-8.159343 9.60989,-8.159343 0,0 -1.45055,-2.175823 -11.06044,2.357143 -9.60989,4.532969 -9.97253,11.604397 -9.97253,11.604397 0,0 4.33343,1.787737 6.34616,6.346154 z"
       id="path16"
       sodipodi:nodetypes="cscscc" />
    <path
       id="path17"
       style="fill:#ffffff;fill-opacity:1;stroke:#000000;stroke-width:1.764;stroke-linecap:butt;stroke-linejoin:miter;stroke-dasharray:none;stroke-opacity:1"
       d="m 89.107222,55.236938 c -16.667516,0.256424 -7.180186,15.385625 -15.129309,15.385625 -7.949126,0 -11.53883,-11.539348 -11.53883,-11.539348 0,0 0.50769,12.860457 6.608899,17.824752 1.608769,-0.516523 3.523178,-0.927235 5.637899,-0.964799 2.170528,-0.03855 4.544577,0.320463 6.990271,1.344104 3.868386,-2.133007 4.529641,-5.659294 6.661608,-5.126302 3.07708,0.76927 4.615739,20.513993 4.615739,20.513993 0,0 1.794974,-2.307955 4.872054,-3.333646 1.955399,-0.651802 5.819777,-1.309992 8.505937,-1.309998 2.68616,-6e-6 6.55094,0.658154 8.50646,1.309998 3.07708,1.025691 4.87206,3.333646 4.87206,3.333646 0,0 1.53865,-19.744723 4.61573,-20.513993 1.9388,-0.484701 2.66145,2.388463 5.68493,4.517554 1.55399,-0.469821 3.06627,-0.691884 4.49947,-0.731222 3.28569,-0.09018 6.15451,0.750542 8.19536,1.604553 6.9578,-4.366618 7.51892,-18.46864 7.51892,-18.46864 0,0 -3.58971,11.539348 -11.53883,11.539348 -7.94912,0 1.53872,-15.129201 -15.12879,-15.385625 -9.34853,-0.143823 -14.50118,10.118026 -17.22479,19.158521 -2.7236,-9.040529 -7.876209,-19.302345 -17.224788,-19.158521 z" />
    <path
       id="path18"
       style="fill:#000000;fill-opacity:1;stroke:none;stroke-width:0.264583px;stroke-linecap:butt;stroke-linejoin:miter;stroke-opacity:1"
       d="m 80.123792,58.517875 c -3.623815,4.519254 -0.515879,12.104688 -6.145879,12.104688 -0.472852,0 -0.928811,-0.0436 -1.370975,-0.120406 0.767812,1.947511 1.761955,3.871505 3.032373,5.45083 1.900185,0.06829 3.934721,0.456244 6.021854,1.327567 1.813352,-0.997583 2.939006,-2.293059 3.823023,-3.343982 -2.807649,-3.307358 -6.689671,-9.202009 -5.360396,-15.418697 z m 52.415918,0 c 1.32927,6.216688 -2.55274,12.111339 -5.36039,15.418697 0.71314,0.847785 1.58631,1.855108 2.84375,2.738334 1.54967,-0.467249 3.05765,-0.688368 4.48707,-0.727604 0.84396,-0.02316 1.65906,0.01715 2.44171,0.101286 1.30648,-1.596192 2.32187,-3.560785 3.10472,-5.546431 -0.44216,0.07681 -0.89813,0.120406 -1.37098,0.120406 -5.63,0 -2.52207,-7.585434 -6.14588,-12.104688 z m -70.100627,0.56534 c 0,0 0.238895,5.948439 2.308903,11.316105 0.421452,-0.574929 0.946262,-1.09744 1.614888,-1.498616 0.54475,-0.32685 1.00562,-0.583757 1.507919,-0.873332 -3.70544,-3.402404 -5.43171,-8.944157 -5.43171,-8.944157 z m 87.785337,0 c 0,0 -1.72627,5.541753 -5.43171,8.944157 0.5023,0.289575 0.96317,0.546482 1.50792,0.873332 0.66863,0.401176 1.19344,0.923687 1.61489,1.498616 2.07001,-5.367666 2.3089,-11.316105 2.3089,-11.316105 z m -48.63476,4.324284 c -3.969037,1.61111 -9.495203,4.549849 -12.580623,9.249048 1.146402,1.37866 2.040189,5.354447 2.686658,9.410795 4.34255,-2.86092 14.213995,-3.147497 14.635795,-3.175517 0.42201,0.028 10.29377,0.314597 14.63632,3.175517 0.64647,-4.056348 1.54026,-8.032135 2.68666,-9.410795 -3.08542,-4.699199 -8.61158,-7.637938 -12.58063,-9.249048 -2.09004,3.353503 -3.62002,7.301393 -4.74235,11.044287 -1.12232,-3.742852 -2.65182,-7.690826 -4.74183,-11.044287 z" />
    <g
       id="text1"
       style="font-size:45px;line-height:4.55;font-family:'Double Feature';-inkscape-font-specification:'Double Feature';text-align:center;letter-spacing:0px;word-spacing:0px;text-anchor:middle;fill:#d60000;stroke:#000000;stroke-width:1.764"
       aria-label="ADOPT THE&#10;IMP">
      <path
         style="font-family:'Intrepid Spear Straight';-inkscape-font-specification:'Intrepid Spear Straight'"
         d="m 16.980084,-8.743475 c -1.71,2.61 -3.15,5.4 -4.275,8.28000004 -1.125,2.87999996 -1.665,6.02999996 -1.665,9.35999996 v 13.86 h 8.595 v -6.84 h 3.105 v 6.84 h 8.595 v -13.86 c 0,-3.33 -0.585,-6.48 -1.71,-9.35999996 -1.125,-2.88000004 -2.52,-5.67000004 -4.23,-8.28000004 z m 2.655,16.2 c 0,-1.35 0.045,-2.79 0.225,-4.32 0.135,-1.485 0.585,-2.83499996 1.305,-4.09499996 0.36,0.585 0.675,1.215 0.9,1.935 0.18,0.71999996 0.36,1.43999996 0.45,2.15999996 0.09,0.72 0.18,1.485 0.18,2.205 0,0.765 0.045,1.485 0.045,2.115 v 1.62 h -3.105 z m 34.694986,-12.105 v 23.31 c 0,0.45 -0.09,0.945 -0.225,1.395 -0.135,0.495 -0.315,0.945 -0.585,1.35 -0.27,0.405 -0.585,0.72 -0.99,0.99 -0.405,0.27 -0.855,0.36 -1.395,0.36 h -17.1 v -27.675 c -0.09,-0.54 -0.18,-1.08 -0.27,-1.71 -0.135,-0.63 -0.27,-1.215 -0.45,-1.755 v -0.18 c 0,-0.09 0.045,-0.135 0.18,-0.18 h 17.64 c 0.54,0 0.99,0.135 1.395,0.405 0.405,0.27 0.72,0.585 0.99,0.99 0.27,0.405 0.45,0.855 0.585,1.305 0.135,0.495 0.225,0.945 0.225,1.395 z m -8.595,17.955 V 0.70652504 c 0,-0.27 -0.045,-0.585 -0.045,-0.855 0,-0.27 -0.09,-0.54 -0.18,-0.765 -0.09,-0.18000004 -0.27,-0.36000004 -0.45,-0.49500004 -0.225,-0.135 -0.54,-0.225 -0.9,-0.225 h -1.53 v 17.28 h 1.53 c 0.72,0 1.17,-0.225 1.35,-0.72 0.135,-0.45 0.225,-0.99 0.225,-1.62 z m 31.589986,-17.955 c 0,-0.45 -0.09,-0.9 -0.225,-1.395 -0.135,-0.45 -0.315,-0.9 -0.585,-1.305 -0.27,-0.405 -0.585,-0.72 -0.99,-0.99 -0.405,-0.27 -0.855,-0.405 -1.395,-0.405 h -13.905 c -0.54,0 -1.035,0.135 -1.44,0.405 -0.405,0.27 -0.72,0.585 -0.99,0.99 -0.27,0.405 -0.45,0.855 -0.585,1.305 -0.135,0.495 -0.18,0.945 -0.18,1.395 v 23.31 c 0,0.45 0.045,0.945 0.18,1.395 0.135,0.495 0.315,0.945 0.585,1.35 0.27,0.405 0.585,0.72 0.99,0.99 0.405,0.27 0.9,0.36 1.44,0.36 h 13.905 c 0.54,0 0.99,-0.09 1.395,-0.36 0.405,-0.27 0.72,-0.585 0.99,-0.99 0.27,-0.405 0.45,-0.855 0.585,-1.35 0.135,-0.45 0.225,-0.945 0.225,-1.395 z m -8.595,18 c 0,0.63 -0.09,1.17 -0.225,1.62 -0.18,0.495 -0.63,0.72 -1.35,0.72 -0.36,0 -0.675,-0.045 -0.855,-0.18 -0.225,-0.135 -0.405,-0.315 -0.495,-0.54 -0.09,-0.225 -0.18,-0.495 -0.18,-0.765 0,-0.27 0,-0.585 0,-0.855 V 0.70652504 c 0,-0.675 0.045,-1.26 0.225,-1.71000004 0.18,-0.45 0.585,-0.675 1.305,-0.675 0.765,0 1.215,0.27 1.35,0.72000004 0.135,0.495 0.225,1.035 0.225,1.62 z m 19.889983,9.405 h -8.595 v -27.765 c -0.09,-0.495 -0.18,-1.035 -0.27,-1.665 -0.135,-0.585 -0.27,-1.17 -0.45,-1.71 v -0.18 c 0,-0.09 0.045,-0.135 0.18,-0.18 h 17.64 c 0.54,0 0.99,0.135 1.395,0.405 0.405,0.27 0.72,0.585 0.99,0.99 0.27,0.405 0.45,0.855 0.585001,1.305 0.135,0.495 0.225,0.945 0.225,1.395 v 16.47 c 0,0.45 -0.09,0.945 -0.225,1.395 -0.135001,0.495 -0.315001,0.945 -0.585001,1.35 -0.27,0.405 -0.585,0.72 -0.99,0.99 -0.405,0.27 -0.855,0.36 -1.395,0.36 h -8.505 z m 3.105,-16.29 V 0.70652504 c 0,-0.27 -0.045,-0.585 -0.045,-0.855 0,-0.27 -0.09,-0.54 -0.18,-0.765 -0.09,-0.18000004 -0.27,-0.36000004 -0.45,-0.49500004 -0.225,-0.135 -0.54,-0.225 -0.9,-0.225 h -1.53 v 10.44 h 1.53 c 0.72,0 1.17,-0.225 1.35,-0.72 0.135,-0.45 0.225,-0.99 0.225,-1.62 z m 11.294991,-7.515 c 0,0.13500004 0.09,0.18000004 0.18,0.18000004 h 0.18 c 0.54,-0.18000004 1.08,-0.31500004 1.71,-0.45000004 0.63,-0.09 1.215,-0.18 1.755,-0.27 h 1.53 v 24.345 h 8.595 v -24.345 h 1.62 c 0.54,0.09 1.08,0.18 1.71,0.27 0.63,0.135 1.215,0.27 1.755,0.45000004 h 0.18 c 0.09,0 0.135,-0.045 0.18,-0.18000004 v -7.695 h -19.395 z m 33.70494,0 c 0,0.13500004 0.09,0.18000004 0.18,0.18000004 h 0.18 c 0.54,-0.18000004 1.08,-0.31500004 1.71,-0.45000004 0.63,-0.09 1.215,-0.18 1.755,-0.27 h 1.53 v 24.345 h 8.595 v -24.345 h 1.62 c 0.54,0.09 1.08,0.18 1.71,0.27 0.63,0.135 1.215,0.27 1.755,0.45000004 h 0.18 c 0.09,0 0.135,-0.045 0.18,-0.18000004 v -7.695 h -19.395 z m 22.09496,23.805 v -27.675 c -0.09,-0.54 -0.18,-1.08 -0.27,-1.71 -0.135,-0.63 -0.27,-1.215 -0.45,-1.755 v -0.18 c 0,-0.09 0.045,-0.135 0.18,-0.18 h 9.135 v 12.195 h 3.105 v -12.195 h 8.595 v 31.5 h -8.595 v -12.195 h -3.105 v 12.195 z m 40.13998,-7.11 h -7.02 c -0.36,0 -0.675,-0.045 -0.855,-0.18 -0.225,-0.135 -0.405,-0.315 -0.495,-0.54 -0.09,-0.225 -0.18,-0.495 -0.18,-0.765 0,-0.27 0,-0.585 0,-0.855 v -2.745 h 8.505 v -7.11 h -8.505 V 0.75152504 c 0,-0.675 0.045,-1.26 0.225,-1.71 0.18,-0.45000004 0.585,-0.67500004 1.305,-0.67500004 h 7.02 v -7.11 h -13.95 c -0.54,0 -1.035,0.135 -1.44,0.405 -0.405,0.27 -0.72,0.585 -0.99,0.99 -0.27,0.405 -0.45,0.855 -0.585,1.305 -0.135,0.495 -0.18,0.945 -0.18,1.395 v 23.31 c 0,0.45 0.045,0.945 0.18,1.395 0.135,0.495 0.315,0.945 0.585,1.35 0.27,0.405 0.585,0.72 0.99,0.99 0.405,0.27 0.9,0.36 1.44,0.36 h 13.95 z"
         id="path2" />
      <path
         style="font-family:'Intrepid Spear Straight';-inkscape-font-specification:'Intrepid Spear Straight'"
         d="m 71.880009,230.44132 h 8.595 v -31.5 h -9.135 c -0.135,0.045 -0.18,0.09 -0.18,0.18 v 0.18 c 0.18,0.54 0.315,1.125 0.45,1.755 0.09,0.63 0.18,1.17 0.27,1.71 z m 22.994976,0 h 8.549995 v -22.095 c 0,-0.27 0,-0.54 0,-0.81 0,-0.27 0.09,-0.54 0.18,-0.765 0.09,-0.225 0.27,-0.405 0.495,-0.54 0.18,-0.135 0.495,-0.225 0.855,-0.225 0.36,0 0.675,0.09 0.9,0.225 0.18,0.135 0.36,0.315 0.45,0.495 0.09,0.225 0.18,0.495 0.18,0.765 0,0.27 0.045,0.585 0.045,0.855 v 22.095 h 8.595 v -27.405 c 0,-0.45 -0.09,-0.9 -0.225,-1.395 -0.135,-0.45 -0.315,-0.9 -0.585,-1.305 -0.27,-0.405 -0.585,-0.72 -0.99,-0.99 -0.405,-0.27 -0.855,-0.405 -1.395,-0.405 h -5.04 v 0.045 c -0.54,0 -0.99,0.135 -1.395,0.36 -0.405,0.225 -0.765,0.495 -1.08,0.81 -0.36,0.315 -0.63,0.63 -0.855,0.99 -0.225,0.36 -0.405,0.675 -0.495,0.945 l -0.045,0.09 c -0.135,-0.765 -0.45,-1.485 -0.99,-2.205 -0.54,-0.675 -1.215,-1.035 -2.114995,-1.035 h -4.68 v 0.045 c -0.54,0 -0.99,0.135 -1.395,0.36 -0.405,0.225 -0.765,0.495 -1.08,0.81 -0.36,0.315 -0.63,0.63 -0.855,0.99 -0.225,0.36 -0.405,0.675 -0.495,0.945 -0.18,-0.585 -0.36,-1.215 -0.63,-1.845 -0.27,-0.63 -0.495,-1.035 -0.675,-1.305 h -7.47 c -0.135,0.045 -0.18,0.09 -0.18,0.18 v 0.18 c 0.18,0.54 0.315,1.125 0.45,1.755 0.09,0.63 0.18,1.17 0.27,1.71 v 27.675 h 8.595 v -22.095 c 0,-0.27 0,-0.54 0,-0.81 0,-0.27 0.09,-0.54 0.18,-0.765 0.09,-0.225 0.27,-0.405 0.495,-0.54 0.18,-0.135 0.495,-0.225 0.855,-0.225 0.36,0 0.675,0.09 0.9,0.225 0.18,0.135 0.36,0.315 0.45,0.495 0.09,0.225 0.18,0.495 0.18,0.765 0,0.27 0.045,0.585 0.045,0.855 z m 31.545025,0 h -8.595 v -27.765 c -0.09,-0.495 -0.18,-1.035 -0.27,-1.665 -0.135,-0.585 -0.27,-1.17 -0.45,-1.71 v -0.18 c 0,-0.09 0.045,-0.135 0.18,-0.18 h 17.64 c 0.54,0 0.99,0.135 1.395,0.405 0.405,0.27 0.72,0.585 0.99,0.99 0.27,0.405 0.45,0.855 0.585,1.305 0.135,0.495 0.225,0.945 0.225,1.395 v 16.47 c 0,0.45 -0.09,0.945 -0.225,1.395 -0.135,0.495 -0.315,0.945 -0.585,1.35 -0.27,0.405 -0.585,0.72 -0.99,0.99 -0.405,0.27 -0.855,0.36 -1.395,0.36 h -8.505 z m 3.105,-16.29 v -5.76 c 0,-0.27 -0.045,-0.585 -0.045,-0.855 0,-0.27 -0.09,-0.54 -0.18,-0.765 -0.09,-0.18 -0.27,-0.36 -0.45,-0.495 -0.225,-0.135 -0.54,-0.225 -0.9,-0.225 h -1.53 v 10.44 h 1.53 c 0.72,0 1.17,-0.225 1.35,-0.72 0.135,-0.45 0.225,-0.99 0.225,-1.62 z"
         id="path3" />
    </g>
  </g>
</svg>
